<?xml version="1.0" standalone="no"?>
<!DOCTYPE svg PUBLIC "-//W3C//DTD SVG 1.1//EN" "http://www.w3.org/Graphics/SVG/1.1/DTD/svg11.dtd" >
<svg xmlns="http://www.w3.org/2000/svg" xmlns:xlink="http://www.w3.org/1999/xlink" version="1.1">
<metadata>
Created by FontForge 20150318 at Mon Apr  6 17:10:25 2015
 By uniteet7
</metadata>
<defs>
<font id="LIKEMinchoSans" horiz-adv-x="833" >
  <font-face 
    font-family="LIKE Mincho Sans"
    font-weight="400"
    font-stretch="normal"
    units-per-em="1000"
    panose-1="0 0 0 0 0 0 0 0 0 0"
    ascent="750"
    descent="-250"
    x-height="437"
    cap-height="668"
    bbox="-59 -141 836 859"
    underline-thickness="47"
    underline-position="-71"
    unicode-range="U+000D-2260"
  />
<missing-glyph horiz-adv-x="500" 
 />
    <glyph glyph-name=".notdef" horiz-adv-x="500" 
 />
    <glyph glyph-name="NULL" horiz-adv-x="0" 
 />
    <glyph glyph-name="NULL" horiz-adv-x="0" 
 />
    <glyph glyph-name="nonmarkingreturn" unicode="&#xd;" horiz-adv-x="500" 
 />
    <glyph glyph-name="space" unicode=" " horiz-adv-x="354" 
 />
    <glyph glyph-name="four" unicode="4" horiz-adv-x="500" 
d="M361 668v-450h106v-23h-106v-195h-62v195h-262v20l285 453h39zM72 218h227v352h-4z" />
    <glyph glyph-name="five" unicode="5" horiz-adv-x="500" 
d="M427 667l-12 -59h-281l-16 -269q24 30 59.5 56t81.5 26t80 -19.5t56 -50t32.5 -68t10.5 -73.5q0 -42 -14 -80.5t-40.5 -68.5t-65.5 -48t-90 -18q-30 0 -59 11t-51.5 33t-36.5 55.5t-14 78.5h24q0 -28 6.5 -55t23 -48.5t43 -34.5t67.5 -13q43 0 70.5 17t43 43.5t21 58.5
t5.5 61q0 33 -6.5 65.5t-20.5 57.5t-37 41t-56 16q-41 0 -73.5 -24.5t-55.5 -61.5l-35 3l19 368h321z" />
    <glyph glyph-name="six" unicode="6" horiz-adv-x="500" 
d="M121 246q0 -116 37.5 -169.5t111.5 -53.5q37 0 59.5 18.5t34.5 47.5t15.5 65t3.5 72q0 83 -31 123.5t-77 40.5q-30 0 -53.5 -13t-42.5 -33.5t-33 -46t-25 -51.5zM121 304q12 24 28.5 47t37 40t44.5 27.5t51 10.5q40 0 71 -17.5t52.5 -46.5t32.5 -65.5t11 -73.5
q0 -60 -16 -103.5t-41.5 -71.5t-58.5 -41.5t-67 -13.5q-67 0 -109.5 29t-67 73.5t-33.5 98t-9 103.5q0 63 10.5 129t37 120t73 88.5t118.5 34.5q38 0 67.5 -15t50.5 -38.5t34.5 -52t19.5 -55.5l-24 -8q-12 39 -32 70q-17 26 -45.5 48.5t-70.5 22.5q-56 0 -88.5 -28.5
t-49.5 -75.5t-22 -108.5t-5 -127.5z" />
    <glyph glyph-name="seven" unicode="7" horiz-adv-x="500" 
d="M441 668v-24q-35 -34 -75 -95t-73.5 -143.5t-56 -185t-22.5 -220.5h-62q0 89 15.5 174.5t43.5 166.5t68 157t88 146h-285l8 24h351z" />
    <glyph glyph-name="eight" unicode="8" horiz-adv-x="500" 
d="M105 160q0 -63 43 -102q35 -35 101 -35q70 0 102 31q39 36 39 110q0 47 -43 90q-51 50 -145 86q-97 -67 -97 -180zM398 621q43 -43 43 -110q0 -89 -122 -156q129 -74 129 -187q0 -67 -50 -118q-59 -54 -149 -54t-144 51q-55 50 -55 113q0 109 129 195q-113 59 -113 156
q0 63 54 114q47 47 137 47q86 0 141 -51zM155 613q-35 -35 -35 -98q0 -35 43 -74t129 -70q94 47 94 137q0 70 -39 105q-31 31 -90 31q-70 0 -102 -31z" />
    <glyph glyph-name="nine" unicode="9" horiz-adv-x="500" 
d="M243 644q-39 0 -63 -17t-37.5 -45t-18 -63.5t-4.5 -71.5q0 -44 9 -77t24.5 -54.5t35.5 -32t42 -10.5q24 0 51 16.5t49 41t36.5 53.5t14.5 54q0 45 -6.5 82.5t-22.5 65t-43 43t-67 15.5zM382 363q0 2 -8 -17t-27.5 -43t-51 -44.5t-77.5 -20.5q-37 0 -67 15t-51.5 42.5
t-33.5 66t-12 85.5q0 60 16.5 103t43 70t60 39.5t68.5 12.5q63 0 104.5 -26.5t66 -69.5t34 -97.5t9.5 -111.5q0 -84 -18.5 -152t-50.5 -117t-75.5 -75.5t-93.5 -26.5q-39 0 -67 15.5t-48.5 40.5t-35 56.5t-24.5 63.5l25 7q13 -44 33 -78q17 -29 45.5 -53.5t71.5 -24.5
q52 0 83.5 35.5t49 88t23.5 111t8 105.5z" />
    <glyph glyph-name="colon" unicode=":" horiz-adv-x="260" 
d="M188 482q0 -23 -16 -39q-15 -16 -39 -16q-23 0 -39 16t-16 39q0 24 16 39q16 16 39 16q24 0 39 -16q16 -15 16 -39zM188 148q0 -23 -16 -39q-15 -16 -39 -16q-23 0 -39 16t-16 39t16 39t39 16q24 0 39 -16q16 -16 16 -39z" />
    <glyph glyph-name="semicolon" unicode=";" 
d="M212 484q0 -23 -16 -39q-15 -16 -39 -16q-23 0 -39 16t-16 39q0 24 16 39q16 16 39 16q24 0 39 -16q16 -15 16 -39zM69 -95l38 -14l122 208h-93z" />
    <glyph glyph-name="less" unicode="&#x3c;" horiz-adv-x="544" 
d="M62 359l348 348l24 -23l-325 -325l325 -324l-24 -23z" />
    <glyph glyph-name="equal" unicode="=" horiz-adv-x="500" 
d="M31 441v36h434v-36h-434zM31 242v35h434v-35h-434z" />
    <glyph glyph-name="greater" unicode="&#x3e;" horiz-adv-x="484" 
d="M62 684l24 23l348 -348l-348 -347l-24 23l325 324z" />
    <glyph glyph-name="question" unicode="?" horiz-adv-x="482" 
d="M420 571q0 -48 -21.5 -90.5t-79.5 -78.5q-48 -30 -67 -58t-19 -55v-129h-32v129q0 27 8 46.5t21.5 36t30 32.5t33.5 36q28 32 42 61t14 70q0 27 -5 54t-20 49t-41.5 35t-69.5 13q-55 0 -85.5 -17.5t-45.5 -40.5t-18 -45.5t-3 -34.5h-26q0 37 13.5 69t38 55t59 36t75.5 13
q49 0 86 -15.5t62 -41t37.5 -59t12.5 -70.5zM162 21q0 -23 16 -38.5t39 -15.5t39 15.5t16 38.5t-16 39t-39 16t-39 -16t-16 -39z" />
    <glyph glyph-name="at" unicode="@" horiz-adv-x="524" 
d="M215 172q-20 0 -35 15q-32 32 -32 110q0 74 32 148q27 67 62 102q28 27 59 27q27 0 39 -31l8 35h43l-36 -246q-11 -62 -11 -90q0 -31 19 -31q16 0 32 16q46 46 46 187q0 148 -50 223q-24 35 -47 50q-39 28 -67 28q-47 0 -82 -35q-101 -102 -101 -328q0 -215 97 -313
q36 -35 75 -35q113 0 179 168l28 -8q-75 -191 -207 -191q-67 0 -118 50q-109 110 -109 329q0 218 117 335q55 55 121 55q59 0 114 -55q86 -85 86 -269q0 -137 -51 -203q-35 -43 -74 -43q-43 0 -51 66q-31 -66 -86 -66zM230 203q47 0 75 109l27 192q-4 47 -31 47
q-16 0 -28 -12q-19 -19 -31 -51q-43 -121 -43 -218q0 -67 31 -67z" />
    <glyph glyph-name="A" unicode="A" horiz-adv-x="462" 
d="M425 0h-62l-59 246h-175l-63 -246h-31l168 652l58 20zM136 269h164l-78 324h-4z" />
    <glyph glyph-name="B" unicode="B" horiz-adv-x="477" 
d="M220 668q98 0 148 -47q36 -35 36 -106q0 -66 -43 -105q-24 -24 -79 -47q67 -23 102 -63q51 -50 51 -128q0 -75 -51 -122q-51 -50 -137 -50h-195v23v31v559v31v0v24h168zM115 54q0 -31 35 -31h70q59 0 98 35q43 43 43 121q0 86 -39 125q-43 43 -118 43h-89v-293zM115 613
v-242h101q43 0 86 43q35 31 35 101q0 63 -27 90q-43 39 -113 39h-47q-35 0 -35 -31z" />
    <glyph glyph-name="C" unicode="C" horiz-adv-x="539" 
d="M453 492q-6 21 -17 47t-30 49.5t-47 39.5t-66 16q-44 0 -77 -24t-54.5 -66t-32.5 -99t-11 -123q0 -97 17 -162.5t49 -103.5q14 -17 37 -28t61 -11q42 0 71.5 16t49.5 40.5t32.5 54t21.5 57.5l24 -12q-16 -53 -43 -94q-12 -18 -27 -34.5t-34 -29.5t-43 -21t-52 -8
q-69 0 -114.5 30t-72 78t-37.5 108t-11 120q0 88 23 152t59 106t79.5 62t84.5 20q50 0 84.5 -23t56 -53t31.5 -58t12 -38z" />
    <glyph glyph-name="D" unicode="D" horiz-adv-x="483" 
d="M118 613v-559q0 -31 42 -31q75 0 133 55q71 66 71 262q0 191 -71 257q-50 47 -121 47q-54 0 -54 -31zM164 668q114 0 192 -75q82 -78 82 -246q0 -195 -90 -281q-70 -66 -188 -66h-105v54v559v55h109z" />
    <glyph glyph-name="E" unicode="E" horiz-adv-x="454" 
d="M384 668l8 -24h-238q-36 0 -36 -31v-242h211v-24h-211v-293q0 -31 36 -31h246l-16 -23h-328v23v31v559v31v24h328z" />
    <glyph glyph-name="F" unicode="F" horiz-adv-x="445" 
d="M404 668l11 -24h-261q-36 0 -36 -31v-242h211v-24h-211v-347h-62v668h348z" />
    <glyph glyph-name="G" unicode="G" horiz-adv-x="495" 
d="M418 488q-1 2 -4.5 14.5t-10 29.5t-17.5 37t-27 36.5t-37 27.5t-48 11q-31 0 -59 -21.5t-49.5 -61.5t-34.5 -98t-13 -131q0 -54 5 -95t13 -71.5t19.5 -53.5t24.5 -42q20 -29 44 -38t50 -9q34 0 54 9t30.5 21.5t13.5 25.5t3 22v129q0 15 -10 29t-36 14h-24v24h133v-24v-43
v-183h-35q-16 -15 -35 -26q-17 -10 -41 -17.5t-53 -7.5q-62 0 -105 30.5t-70 78.5t-39.5 108t-12.5 119q0 82 20.5 145t53 106.5t73 66t80.5 22.5q42 0 73 -22.5t51.5 -52.5t31 -59t12.5 -42z" />
    <glyph glyph-name="H" unicode="H" horiz-adv-x="467" 
d="M118 668v-305h230v305h63v-668h-63v340h-230v-340h-63v668h63z" />
    <glyph glyph-name="I" unicode="I" horiz-adv-x="176" 
d="M118 668v-668h-63v668h63z" />
    <glyph glyph-name="J" unicode="J" horiz-adv-x="381" 
d="M331 668v-616q0 -37 -14 -69t-38 -56t-56 -37.5t-68 -13.5q-25 0 -47 9t-38.5 24t-26 35.5t-9.5 44.5l23 9q0 -25 8 -43t21.5 -30t31.5 -17.5t37 -5.5q9 0 28 2.5t37.5 17t33 44.5t14.5 86v616h63z" />
    <glyph glyph-name="K" unicode="K" horiz-adv-x="456" 
d="M158 351l226 317h32l-203 -291l222 -377h-66zM145 328v-274v-31v-23h-63v23v31v559v31v24h63v-24v-31v-285z" />
    <glyph glyph-name="L" unicode="L" horiz-adv-x="429" 
d="M117 668v-614q0 -31 35 -31h250l-7 -23h-341v668h63z" />
    <glyph glyph-name="M" unicode="M" horiz-adv-x="487" 
d="M118 668l113 -524h8l121 524h74v-668h-62v566h-8l-133 -566h-23l-121 554h-8v-554h-23v668h62z" />
    <glyph glyph-name="N" unicode="N" horiz-adv-x="470" 
d="M108 668l266 -520h7v520h23v-668h-23l-297 590h-7v-590h-23v668h54z" />
    <glyph glyph-name="O" unicode="O" horiz-adv-x="519" 
d="M114 335q0 -44 4.5 -100t19.5 -105t44 -82.5t77 -33.5t76.5 33.5t43.5 82.5t19.5 105t4.5 100q0 150 -34 231t-110 81q-77 0 -111 -81t-34 -231zM259 -5q-45 0 -85 23t-70 66.5t-47 106.5t-17 144q0 73 14.5 134.5t42 106.5t68.5 70t94 25q54 0 95 -26t68.5 -71.5
t41.5 -107t14 -131.5q0 -81 -17 -144t-47 -106.5t-70 -66.5t-85 -23z" />
    <glyph glyph-name="P" unicode="P" horiz-adv-x="463" 
d="M223 668q101 0 156 -51q47 -47 47 -121q0 -78 -47 -125q-59 -59 -144 -59h-122v-312h-63v668h173zM113 613v-277h98q66 0 106 39q43 39 43 117t-43 117q-36 35 -114 35h-54q-36 0 -36 -31z" />
    <glyph glyph-name="Q" unicode="Q" horiz-adv-x="552" 
d="M409 -25q-23 2 -36.5 13t-24.5 27q-38 -20 -80 -20q-45 0 -85 23t-70 66.5t-47 106.5t-17 144q0 73 14.5 134.5t42 106.5t68.5 70t94 25q54 0 95 -26t68.5 -71.5t41.5 -107t14 -131.5q0 -109 -30.5 -185.5t-80.5 -116.5q9 -14 19 -23.5t24 -9.5q9 0 15.5 3.5t11.5 8.5
t9 12l16 -15q-6 -10 -15 -17q-8 -7 -19.5 -12t-27.5 -5zM123 335q0 -30 2 -64.5t7 -70t15 -68.5t26 -58t39.5 -40.5t55.5 -15.5q37 0 65 22q-13 21 -28 38.5t-43 17.5q-11 0 -18.5 -3t-13.5 -6q-7 -4 -12 -9l-15 13q14 15 30.5 21t34.5 6q33 0 53.5 -17t34.5 -37
q18 25 29.5 58.5t17.5 70.5t8 74t2 68q0 150 -34 229t-111 79t-111 -79t-34 -229z" />
    <glyph glyph-name="R" unicode="R" horiz-adv-x="471" 
d="M240 668q98 0 148 -47q39 -39 39 -110q0 -74 -43 -117t-97 -54l144 -340h-70l-133 336h-90v-336h-63v668h165zM138 613v-254h86q63 0 102 39q35 35 35 106q0 70 -35 105q-39 35 -110 35h-43q-35 0 -35 -31z" />
    <glyph glyph-name="S" unicode="S" horiz-adv-x="486" 
d="M402 507q-13 45 -31.5 72t-40.5 42t-45 20t-45 5q-65 0 -96 -35t-31 -95q0 -30 8.5 -48.5t24 -30.5t37.5 -21t50 -22q36 -17 73 -37t67 -46.5t48.5 -61t18.5 -80.5q0 -38 -15 -70t-41.5 -54.5t-63 -35t-78.5 -12.5q-46 0 -79 14t-56 39t-38.5 60t-25.5 76l24 12
q13 -47 28 -80t35 -54t47 -31t65 -10q42 0 69.5 13t44 33.5t23.5 46.5t7 53q0 26 -15.5 49.5t-41.5 44.5t-59 40t-69 36q-30 14 -55.5 27.5t-44 30.5t-29 41.5t-10.5 60.5q0 42 14.5 74.5t39 54t56.5 33t68 11.5q24 0 50.5 -6t52 -23.5t46.5 -47.5t35 -78z" />
    <glyph glyph-name="T" unicode="T" horiz-adv-x="471" 
d="M453 668v-28h-70h-71q-47 0 -47 -43v-543v-31v-23h-62v23v0v31v547q0 39 -35 39h-78h-75v28h438z" />
    <glyph glyph-name="U" unicode="U" horiz-adv-x="460" 
d="M117 668v-24v-31v-441q0 -90 31 -118q31 -27 90 -27q66 0 98 31q43 39 43 114v441v31v24h23v-24v-31v-441q0 -79 -47 -125q-55 -51 -125 -51q-82 0 -133 47q-43 43 -43 129v441v31v24h63z" />
    <glyph glyph-name="V" unicode="V" horiz-adv-x="456" 
d="M105 668l133 -520h8l136 520h28l-180 -668h-23l-164 668h62z" />
    <glyph glyph-name="W" unicode="W" horiz-adv-x="501" 
d="M101 668l70 -481h8l66 325l-18 156h54l66 -469h8l81 469h27l-116 -668h-24l-62 418h-8l-82 -418h-23l-102 668h55z" />
    <glyph glyph-name="X" unicode="X" horiz-adv-x="489" 
d="M133 668l125 -278l133 278h27l-145 -309l168 -359h-66l-133 289l-137 -289h-31l153 328l-157 340h63z" />
    <glyph glyph-name="Y" unicode="Y" horiz-adv-x="448" 
d="M101 668l130 -348h8l133 348h28l-146 -375v-293h-62v270l-153 398h62z" />
    <glyph glyph-name="Z" unicode="Z" horiz-adv-x="494" 
d="M457 668l-344 -645h304l-7 -23h-375l344 644h-286l9 24h355z" />
    <glyph glyph-name="bracketleft" unicode="[" horiz-adv-x="571" 
d="M430 793v-35h-196v-797h196v-35h-231v867h231z" />
    <glyph glyph-name="backslash" unicode="\" 
 />
    <glyph glyph-name="bracketright" unicode="]" horiz-adv-x="397" 
d="M297 -74h-231v35h196v797h-196v35h231v-867z" />
    <glyph glyph-name="asciicircum" unicode="^" horiz-adv-x="462" 
d="M297 809l82 -106l-8 -8l-121 78l-125 -78l-8 8l86 106h94zM297 809l82 -106l-8 -8l-121 78l-125 -78l-8 8l86 106h94z" />
    <glyph glyph-name="underscore" unicode="_" horiz-adv-x="495" 
d="M0 -78v35h496v-35h-496z" />
    <glyph glyph-name="grave" unicode="`" horiz-adv-x="359" 
d="M195 809l86 -86l-4 -16l-195 90l8 12h105z" />
    <glyph glyph-name="a" unicode="a" horiz-adv-x="510" 
d="M384 407q27 -27 27 -70v-297q0 -16 16 -16q12 0 27 47l20 8q-20 -82 -66 -82q-40 0 -51 51q-78 -51 -153 -51q-74 0 -113 35q-35 31 -35 78q0 39 43 82q59 59 258 98v54q0 36 -20 55q-19 20 -78 20t-90 -20q-35 -23 -23 -47q8 -11 0 -31q-8 -16 -31 -16q-36 0 -36 39
q0 28 24 51q47 47 152 47q94 0 129 -35zM161 184q-39 -39 -39 -74q0 -39 28 -62q27 -24 62 -24q67 0 145 51v187q-149 -31 -196 -78z" />
    <glyph glyph-name="b" unicode="b" horiz-adv-x="530" 
d="M145 344q58 98 140 98q67 0 114 -47q54 -51 54 -179q0 -114 -58 -168q-51 -51 -125 -51q-82 0 -129 47l-35 -47h-16v617q0 31 -35 31h-20v24h32q39 0 78 31v-356zM145 266v-117q0 -125 117 -125q55 0 82 27q47 43 47 161q0 132 -43 175q-28 28 -63 28q-93 0 -140 -149z
" />
    <glyph glyph-name="c" unicode="c" horiz-adv-x="474" 
d="M371 399q31 -31 31 -62q0 -43 -39 -43q-35 0 -35 39q0 -12 8 27q4 20 -32 43q-23 16 -50 16q-47 0 -82 -35q-59 -55 -59 -180q0 -102 51 -149q27 -27 86 -27q70 0 101 31q36 35 59 86l19 -8q-23 -58 -62 -93q-51 -47 -125 -47q-78 0 -129 51q-62 58 -62 156q0 113 70 183
q55 55 141 55q66 0 109 -43z" />
    <glyph glyph-name="d" unicode="d" horiz-adv-x="519" 
d="M176 376q-55 -51 -55 -164q0 -121 47 -164q23 -24 66 -24q94 0 125 110v199q-54 74 -113 74q-39 0 -70 -31zM414 75q0 -35 31 -35h28v-24h-24q-35 0 -82 -23h-8v78q-47 -78 -129 -78q-66 0 -113 47q-58 54 -58 160q0 117 66 184q55 54 117 54q59 0 117 -62v222
q0 47 -35 47h-27v24h39q39 0 78 31v-625z" />
    <glyph glyph-name="e" unicode="e" horiz-adv-x="486" 
d="M170 387q-55 -46 -55 -140h250q4 105 -43 144q-31 28 -74 28q-39 0 -78 -32zM377 395q54 -47 54 -172h-316q0 -125 51 -164q39 -31 82 -31q66 0 101 31q32 32 51 75l20 -12q-16 -43 -59 -82q-43 -43 -117 -43q-82 0 -133 51q-59 54 -59 183q0 106 67 160q58 51 129 51
q74 0 129 -47z" />
    <glyph glyph-name="f" unicode="f" horiz-adv-x="501" 
d="M453 636q20 -19 20 -43q0 -35 -36 -35q-39 0 -39 35q0 8 4 20q0 12 -7 20q-16 11 -59 11q-47 0 -78 -27q-28 -27 -28 -94v-86h165v-23h-165v-360q0 -31 36 -31h93v-23h-285v23h67q35 0 35 31v360h-121v23h121v90q0 66 31 98q51 47 133 47q74 0 113 -36z" />
    <glyph glyph-name="g" unicode="g" horiz-adv-x="527" 
d="M168 387q-31 -31 -31 -93q0 -47 31 -78q31 -32 70 -32t71 32q31 31 31 78q0 62 -31 93q-32 32 -71 32t-70 -32zM328 83q113 -16 113 -106q0 -35 -31 -66q-47 -47 -172 -47q-109 0 -156 47q-27 27 -27 58q0 51 82 90q-51 28 -51 67q0 23 55 62q-59 47 -59 106q0 58 47 105
q43 43 109 43q63 0 110 -35q54 35 78 35q19 0 31 -8q12 -11 12 -27q0 -31 -28 -31q-23 0 -31 19q-8 20 -47 -8q32 -43 32 -93q0 -47 -47 -94q-39 -39 -110 -39q-47 0 -74 15q-31 -19 -31 -35q0 -31 31 -35q102 -15 164 -23zM176 51q-71 -27 -71 -82q0 -23 24 -46
q35 -36 125 -36q82 0 121 39q16 16 16 43q0 47 -39 55q-79 16 -176 27z" />
    <glyph glyph-name="h" unicode="h" horiz-adv-x="503" 
d="M141 699v-348q66 90 152 90q59 0 94 -35q27 -27 27 -102v-250q0 -31 35 -31h20v-23h-164v23h19q35 0 35 31v243q0 70 -19 89q-24 24 -55 24q-78 0 -144 -98v-258q0 -31 35 -31h19v-23h-164v23h20q35 0 35 31v559q0 31 -35 31h-24v24h43q32 0 63 31h8z" />
    <glyph glyph-name="i" unicode="i" horiz-adv-x="380" 
d="M228 664q16 -16 16 -31q0 -20 -16 -36q-16 -15 -35 -15q-20 0 -35 15q-16 16 -16 36q0 15 16 31q15 15 35 15q19 0 35 -15zM216 465v-411q0 -31 35 -31h83v-23h-290v23h82q36 0 36 31v325q0 35 -36 35h-82v23h40q66 0 125 28h7z" />
    <glyph glyph-name="j" unicode="j" horiz-adv-x="486" 
d="M391 664q15 -16 15 -31q0 -20 -15 -36q-16 -15 -36 -15q-19 0 -35 15q-15 16 -15 36q0 15 15 31q16 15 35 15q20 0 36 -15zM387 465v-418q0 -86 -47 -129q-55 -55 -141 -55q-74 0 -101 27q-20 20 -20 39q0 36 39 36q35 0 35 -36q0 -35 59 -35q121 0 121 137v348
q0 35 -35 35h-78v23h35q66 0 125 28h8z" />
    <glyph glyph-name="k" unicode="k" horiz-adv-x="519" 
d="M145 699v-496l164 176q15 35 -12 35h-24v23h164v-23h-19q-27 0 -63 -28l-93 -105l148 -231q20 -27 43 -27h16v-23h-164v23h15q35 0 24 27l-121 192l-78 -82v-106q0 -31 35 -31h19v-23h-164v23h20q35 0 35 31v559q0 31 -35 31h-20v24h31q43 0 71 31h8z" />
    <glyph glyph-name="l" unicode="l" horiz-adv-x="418" 
d="M236 699v-645q0 -31 35 -31h90v-23h-304v23h89q36 0 36 31v559q0 31 -36 31h-85v24h43q66 0 125 31h7z" />
    <glyph glyph-name="m" unicode="m" horiz-adv-x="568" 
d="M135 457v-82q43 62 98 62q51 0 74 -62q43 62 98 62q31 0 59 -27q23 -24 23 -63v-297q0 -27 31 -27h8v-23h-133v23h8q31 0 31 27v282q0 62 -39 62q-54 0 -78 -66v-278q0 -27 31 -27h8v-23h-133v23h8q31 0 31 27v274q0 70 -46 70q-47 0 -79 -58v-286q0 -27 32 -27h8v-23
h-133v23h8q31 0 31 27v340q0 24 -20 24h-15v23h11q35 0 71 20h7z" />
    <glyph glyph-name="n" unicode="n" horiz-adv-x="508" 
d="M144 457v-98q66 78 144 78q129 0 129 -140v-243q0 -31 35 -31h20v-23h-164v23h19q35 0 35 31v254q0 98 -89 98q-71 0 -129 -90v-262q0 -31 35 -31h19v-23h-164v23h20q35 0 35 31v336q0 24 -20 24h-31v23h27q36 0 71 20h8z" />
    <glyph glyph-name="o" unicode="o" horiz-adv-x="509" 
d="M385 390q74 -74 74 -175q0 -102 -70 -168q-51 -51 -133 -51q-78 0 -129 51q-74 70 -74 168q0 101 70 171q55 55 133 55t129 -51zM166 375q-51 -47 -51 -164q0 -110 51 -157q35 -35 90 -35t90 35q51 47 51 157q0 117 -51 164q-39 39 -90 39t-90 -39z" />
    <glyph glyph-name="p" unicode="p" horiz-adv-x="514" 
d="M141 457v-102q62 86 140 86q63 0 114 -51q58 -54 58 -191q0 -106 -58 -160q-43 -43 -114 -43q-90 0 -140 70v-144q0 -36 35 -36h27v-23h-180v23h28q35 0 35 36v457q0 35 -35 35h-24v23h35q36 0 71 20h8zM141 300v-179q46 -98 129 -98q50 0 82 31q39 36 39 145
q0 129 -51 176q-31 31 -74 31q-75 0 -125 -106z" />
    <glyph glyph-name="q" unicode="q" horiz-adv-x="516" 
d="M164 375q-51 -47 -51 -176q0 -106 43 -149q31 -27 74 -27q86 0 125 106v203q-35 82 -109 82q-43 0 -82 -39zM359 390l36 51h15v-519q0 -36 35 -36h28v-23h-180v23h27q35 0 35 36v152q-46 -78 -136 -78q-63 0 -110 47q-58 54 -58 156q0 121 66 187q55 55 117 55
q67 0 125 -51z" />
    <glyph glyph-name="r" unicode="r" horiz-adv-x="502" 
d="M199 465v-157q78 129 176 129q43 0 66 -23q16 -16 16 -35q0 -36 -35 -36t-35 36q0 23 -35 23q-82 0 -153 -160v-188q0 -31 35 -31h82v-23h-289v23h82q36 0 36 31v325q0 35 -36 35h-74v23h31q55 0 125 28h8z" />
    <glyph glyph-name="s" unicode="s" horiz-adv-x="477" 
d="M302 429q24 -7 35 -7q24 0 47 19l16 -129l-24 -4q-43 110 -140 110q-59 0 -90 -32q-23 -23 -20 -50q4 -39 47 -59q24 -12 164 -62q67 -24 67 -94q0 -51 -28 -78q-50 -47 -132 -47q-51 0 -86 12q-20 7 -35 7q-24 0 -55 -27l-12 152l24 4q19 -125 164 -125q109 0 109 90
q0 43 -35 59q-102 47 -180 74q-66 23 -66 78q0 47 27 74q47 47 129 47q39 0 74 -12z" />
    <glyph glyph-name="t" unicode="t" horiz-adv-x="474" 
d="M226 590v-153h157v-23h-157v-324q0 -59 67 -59q47 0 66 19q28 28 39 83l20 -12q-12 -63 -43 -90q-39 -35 -94 -35t-78 23q-31 28 -31 78v317h-118v23h20q125 0 125 129v24h27z" />
    <glyph glyph-name="u" unicode="u" horiz-adv-x="512" 
d="M142 466v-332q0 -59 19 -79q24 -19 63 -19q62 0 97 31q24 20 39 63v250q0 35 -35 35h-19v23h19q43 0 82 28h8v-391q0 -31 35 -31h24v-24h-24q-39 0 -82 -23h-8v82q-46 -82 -148 -82q-55 0 -90 31t-35 102v250q0 35 -35 35h-20v23h20q43 0 82 28h8z" />
    <glyph glyph-name="v" unicode="v" horiz-adv-x="489" 
d="M201 437v-23h-16q-35 0 -27 -51l90 -277h8l97 273q16 55 -31 55h-8v23h141v-23h-8q-47 0 -62 -55l-133 -363h-24l-132 383q-12 35 -43 35h-20v23h168z" />
    <glyph glyph-name="w" unicode="w" horiz-adv-x="554" 
d="M166 437v-23h-16q-31 0 -20 -51l59 -242h8l54 222q-11 71 -39 71h-11v23h132v-23h-11q-31 0 -20 -51l55 -250h4l66 270q4 31 -23 31h-20v23h133v-23h-16q-31 0 -46 -51l-94 -367h-24l-70 297l-74 -297h-24l-89 359q-16 59 -39 59h-8v23h133z" />
    <glyph glyph-name="x" unicode="x" horiz-adv-x="492" 
d="M227 437v-23h-12q-35 0 -20 -39l67 -114l70 114q20 39 -20 39h-23v23h152v-23h-19q-27 0 -39 -16l-106 -160l110 -176q31 -39 54 -39h16v-23h-172v23h24q43 0 19 39l-82 133l-94 -137q-15 -35 24 -35h11v-23h-152v23h24q27 0 66 47l105 152l-101 164q-16 28 -51 28h-19
v23h168z" />
    <glyph glyph-name="y" unicode="y" horiz-adv-x="505" 
d="M207 437v-23h-16q-35 0 -27 -39l94 -266h8l86 262q3 43 -28 43h-23v23h164v-23h-24q-31 0 -54 -43l-133 -387q-24 -78 -51 -105q-19 -20 -58 -20q-32 0 -43 12q-12 12 -12 27q0 16 12 27q7 8 23 8q20 0 27 -11q12 -16 24 -16q15 0 27 23q20 43 35 106l-133 344
q-15 35 -46 35h-16v23h164z" />
    <glyph glyph-name="z" unicode="z" horiz-adv-x="487" 
d="M414 437l-281 -414h148q39 0 74 31q36 36 51 102l24 -4l-28 -152h-347l281 414h-145q-31 0 -58 -28q-24 -23 -39 -86l-24 4l16 133h328z" />
    <glyph glyph-name="braceleft" unicode="{" horiz-adv-x="620" 
d="M211 375q43 0 62 20q24 23 24 85v168q0 79 27 106q31 31 102 47v-28q-35 -3 -59 -27q-35 -35 -35 -98v-175q0 -59 -20 -78q-31 -32 -66 -32v-8q35 0 66 -31q20 -19 20 -78v-176q0 -62 35 -97q24 -24 59 -28v-27q-71 16 -102 47q-27 27 -27 105v168q0 63 -24 86
q-19 20 -62 20v15v16z" />
    <glyph glyph-name="bar" unicode="|" horiz-adv-x="493" 
d="M234 -137v996h24v-996h-24z" />
    <glyph glyph-name="braceright" unicode="}" horiz-adv-x="467" 
d="M74 -82v27q35 4 59 28q35 35 35 97v176q0 59 19 78q32 31 67 31v8q-35 0 -67 32q-19 19 -19 78v175q0 63 -35 98q-24 24 -59 27v28q71 -16 102 -47q27 -27 27 -106v-168q0 -62 24 -85q19 -20 62 -20v-16v-15q-43 0 -62 -20q-24 -23 -24 -86v-168q0 -78 -27 -105
q-31 -31 -102 -47z" />
    <glyph glyph-name="asciitilde" unicode="~" horiz-adv-x="514" 
d="M223 812q47 -50 70 -70q35 -35 66 -35q67 0 90 90l12 -16q-35 -121 -106 -121q-35 0 -70 31q-27 24 -70 75q-31 35 -70 35q-59 0 -98 -94l-8 16q51 121 117 121q35 0 67 -32z" />
    <glyph glyph-name="Adieresis" unicode="&#xc4;" horiz-adv-x="481" 
d="M433 0h-62l-59 246h-175l-63 -246h-31l168 652l58 20zM144 269h164l-78 324h-4zM191 816q16 -16 16 -35q0 -23 -16 -39q-11 -12 -35 -12q-23 0 -35 12q-16 16 -16 39q0 19 16 35q12 12 35 12q24 0 35 -12zM387 816q15 -16 15 -35q0 -23 -15 -39q-12 -12 -35 -12
q-24 0 -36 12q-15 16 -15 39q0 19 15 35q12 12 36 12q23 0 35 -12z" />
    <glyph glyph-name="Aring" unicode="&#xc5;" 
d="M320 805q28 -27 28 -70t-28 -70q-27 -28 -70 -28t-70 28q-28 27 -28 70t28 70q27 28 70 28t70 -28zM199 786q-19 -20 -19 -51t19 -51q20 -19 51 -19t51 19q19 20 19 51t-19 51q-20 19 -51 19t-51 -19zM445 1h-62l-59 246h-183l-65 -246h-31l172 614l58 20zM148 270h172
l-78 324h-4z" />
    <glyph glyph-name="Ccedilla" unicode="&#xc7;" 
 />
    <glyph glyph-name="Eacute" unicode="&#xc9;" horiz-adv-x="513" 
d="M360 808l3 -7l-195 -89l-3 9l102 79zM414 668l8 -24h-238q-36 0 -36 -31v-242h211v-24h-211v-293q0 -31 36 -31h246l-16 -23h-328v23v31v559v31v24h328z" />
    <glyph glyph-name="Ntilde" unicode="&#xd1;" horiz-adv-x="495" 
d="M262 794q35 -35 66 -35q63 0 86 58l20 -8q-43 -86 -106 -86q-55 0 -98 43q-35 35 -58 35q-59 0 -90 -62l-20 8q40 86 114 86q47 0 86 -39zM128 668l266 -520h7v520h23v-668h-23l-297 590h-7v-590h-23v668h54z" />
    <glyph glyph-name="Odieresis" unicode="&#xd6;" horiz-adv-x="525" 
d="M191 828q16 -16 16 -35q0 -23 -16 -39q-11 -12 -35 -12q-23 0 -35 12q-16 16 -16 39q0 19 16 35q12 12 35 12q24 0 35 -12zM387 828q15 -16 15 -35q0 -23 -15 -39q-12 -12 -35 -12q-24 0 -36 12q-15 16 -15 39q0 19 15 35q12 12 36 12q23 0 35 -12zM184 633
q-75 -63 -75 -289q0 -223 75 -285q31 -28 70 -28t70 28q74 62 74 285q0 226 -74 289q-27 23 -70 23t-70 -23zM371 641q102 -90 102 -297q0 -199 -102 -289q-55 -47 -117 -47q-63 0 -117 47q-102 90 -102 289q0 207 98 293q51 47 121 47t117 -43z" />
    <glyph glyph-name="Udieresis" unicode="&#xdc;" horiz-adv-x="493" 
d="M191 816q16 -16 16 -35q0 -23 -16 -39q-11 -12 -35 -12q-23 0 -35 12q-16 16 -16 39q0 19 16 35q12 12 35 12q24 0 35 -12zM387 816q15 -16 15 -35q0 -23 -15 -39q-12 -12 -35 -12q-24 0 -36 12q-15 16 -15 39q0 19 15 35q12 12 36 12q23 0 35 -12zM134 672v-24v-31v-441
q0 -90 31 -118q31 -27 90 -27q66 0 98 31q43 39 43 114v441v31v24h23v-24v-31v-441q0 -79 -47 -125q-55 -51 -125 -51q-82 0 -133 47q-43 43 -43 129v441v31v24h63z" />
    <glyph glyph-name="aacute" unicode="&#xe1;" horiz-adv-x="503" 
d="M372 406q27 -27 27 -70v-297q0 -16 16 -16q12 0 27 47l20 8q-20 -82 -66 -82q-40 0 -51 51q-78 -51 -153 -51q-74 0 -113 35q-35 31 -35 78q0 39 43 82q59 59 258 98v54q0 36 -20 55q-19 20 -78 20t-90 -20q-35 -23 -23 -47q8 -11 0 -31q-8 -16 -31 -16q-36 0 -36 39
q0 28 24 51q47 47 152 47q94 0 129 -35zM149 183q-39 -39 -39 -74q0 -39 28 -62q27 -24 62 -24q67 0 145 51v187q-149 -31 -196 -78zM360 586l8 -12l-195 -90l-4 16l86 86h105z" />
    <glyph glyph-name="agrave" unicode="&#xe0;" horiz-adv-x="520" 
d="M371 406q27 -27 27 -70v-297q0 -16 16 -16q12 0 27 47l20 8q-20 -82 -66 -82q-40 0 -51 51q-78 -51 -153 -51q-74 0 -113 35q-35 31 -35 70q0 47 43 90q59 59 258 98v54q0 36 -20 55q-19 20 -78 20t-90 -20q-35 -23 -23 -47q8 -11 0 -31q-8 -16 -31 -16q-36 0 -36 39
q0 28 24 51q47 47 152 47q94 0 129 -35zM148 183q-39 -39 -39 -82q0 -31 28 -54q27 -24 62 -24q67 0 145 51v187q-149 -31 -196 -78zM238 586l86 -86l-4 -16l-195 90l8 12h105z" />
    <glyph glyph-name="acircumflex" unicode="&#xe2;" 
d="M371 404q27 -27 27 -70v-297q0 -16 16 -16q12 0 27 47l20 8q-20 -82 -66 -82q-40 0 -51 51q-78 -51 -153 -51q-74 0 -113 35q-35 31 -35 78q0 39 43 82q59 59 258 98v54q0 36 -20 55q-19 20 -78 20t-90 -20q-35 -23 -23 -47q8 -11 0 -31q-8 -16 -31 -16q-36 0 -36 39
q0 28 24 51q47 47 152 47q94 0 129 -35zM148 181q-39 -39 -39 -74q0 -39 28 -62q27 -24 62 -24q67 0 145 51v187q-149 -31 -196 -78zM297 595l82 -105l-8 -8l-121 78l-125 -78l-8 8l86 105h94z" />
    <glyph glyph-name="adieresis" unicode="&#xe4;" horiz-adv-x="510" 
d="M371 407q27 -27 27 -70v-297q0 -16 16 -16q12 0 27 47l20 8q-20 -82 -66 -82q-40 0 -51 51q-78 -51 -153 -51q-74 0 -113 35q-35 31 -35 78q0 39 43 82q59 59 258 98v54q0 36 -20 55q-19 20 -78 20t-90 -20q-35 -23 -23 -47q8 -11 0 -31q-8 -16 -31 -16q-36 0 -36 39
q0 28 24 51q47 47 152 47q94 0 129 -35zM148 184q-39 -39 -39 -74q0 -39 28 -62q27 -24 62 -24q67 0 145 51v187q-149 -31 -196 -78zM195 575q16 -16 16 -35q0 -24 -16 -39q-11 -12 -35 -12q-23 0 -35 12q-16 15 -16 39q0 19 16 35q12 12 35 12q24 0 35 -12zM375 575
q16 -16 16 -35q0 -24 -16 -39q-12 -12 -35 -12q-24 0 -35 12q-16 15 -16 39q0 19 16 35q11 12 35 12q23 0 35 -12z" />
    <glyph glyph-name="atilde" unicode="&#xe3;" horiz-adv-x="500" 
d="M371 407q27 -27 27 -70v-297q0 -16 16 -16q12 0 27 47l20 8q-20 -82 -66 -82q-40 0 -51 51q-78 -51 -153 -51q-74 0 -113 35q-35 31 -35 78q0 39 43 82q59 59 258 98v54q0 36 -20 55q-19 20 -78 20t-90 -20q-35 -23 -23 -47q8 -11 0 -31q-8 -16 -31 -16q-36 0 -36 39
q0 28 24 51q47 47 152 47q94 0 129 -35zM148 184q-39 -39 -39 -74q0 -39 28 -62q27 -24 62 -24q67 0 145 51v187q-149 -31 -196 -78zM254 563q35 -35 62 -35q55 0 79 59l19 -8q-43 -86 -98 -86q-46 0 -89 43q-28 27 -55 27q-55 0 -82 -54l-20 7q39 78 106 78q47 0 78 -31z
" />
    <glyph glyph-name="aring" unicode="&#xe5;" horiz-adv-x="510" 
d="M371 406q27 -27 27 -70v-297q0 -16 16 -16q12 0 27 47l20 8q-20 -82 -66 -82q-40 0 -51 51q-78 -51 -153 -51q-74 0 -113 35q-35 31 -35 78q0 39 43 82q59 59 258 98v54q0 36 -20 55q-19 20 -78 20t-90 -20q-35 -23 -23 -47q8 -11 0 -31q-8 -16 -31 -16q-36 0 -36 39
q0 28 24 51q47 47 152 47q94 0 129 -35zM148 183q-39 -39 -39 -74q0 -39 28 -62q27 -24 62 -24q67 0 145 51v187q-149 -31 -196 -78zM195 633q-19 -20 -19 -51q0 -32 19 -51q20 -20 51 -20t51 20q19 19 19 51q0 31 -19 51q-20 19 -51 19t-51 -19zM316 652q28 -27 28 -70
t-28 -71q-27 -27 -70 -27t-70 27q-28 28 -28 71t28 70q27 27 70 27t70 -27z" />
    <glyph glyph-name="ccedilla" unicode="&#xe7;" 
d="M437 143q-23 -58 -62 -94q-51 -46 -125 -46l-27 -51q19 19 74 19q66 0 66 -47q0 -58 -183 -58l-16 16q148 3 148 42q0 28 -27 28q-43 0 -62 -24l-39 4l39 71q-63 11 -102 50q-62 63 -62 157q0 105 70 175q55 55 141 55q66 0 109 -43q31 -31 31 -62q0 -43 -39 -43
q-35 0 -35 39q0 -12 8 27q4 20 -32 43q-23 16 -50 16q-47 0 -82 -35q-59 -55 -59 -172q0 -102 51 -149q27 -27 86 -27q70 0 101 31q36 35 59 86z" />
    <glyph glyph-name="eacute" unicode="&#xe9;" 
d="M359 586l8 -12l-195 -90l-4 16l86 86h105zM180 386q-55 -46 -55 -140h250q4 105 -43 144q-31 28 -74 28q-39 0 -78 -32zM387 394q54 -47 54 -172h-316q0 -125 51 -164q39 -31 82 -31q66 0 101 31q32 32 51 75l20 -12q-16 -43 -59 -82q-43 -43 -117 -43q-82 0 -133 51
q-59 54 -59 183q0 106 67 160q58 51 129 51q74 0 129 -47z" />
    <glyph glyph-name="egrave" unicode="&#xe8;" 
d="M238 586l86 -86l-4 -16l-195 90l8 12h105zM180 386q-55 -46 -55 -140h250q4 105 -43 144q-31 28 -74 28q-39 0 -78 -32zM387 394q54 -47 54 -172h-316q0 -125 51 -164q39 -31 82 -31q66 0 101 31q32 32 51 75l20 -12q-16 -43 -59 -82q-43 -43 -117 -43q-82 0 -133 51
q-59 54 -59 183q0 106 67 160q58 51 129 51q74 0 129 -47z" />
    <glyph glyph-name="ecircumflex" unicode="&#xea;" 
d="M297 596l82 -105l-8 -8l-121 78l-125 -78l-8 8l86 105h94zM180 385q-55 -46 -55 -140h250q4 105 -43 144q-31 28 -74 28q-39 0 -78 -32zM387 393q54 -47 54 -172h-316q0 -125 51 -164q39 -31 82 -31q66 0 101 31q32 32 51 75l20 -12q-16 -43 -59 -82q-43 -43 -117 -43
q-82 0 -133 51q-59 54 -59 183q0 106 67 160q58 51 129 51q74 0 129 -47z" />
    <glyph glyph-name="edieresis" unicode="&#xeb;" 
d="M195 574q16 -16 16 -35q0 -24 -16 -39q-11 -12 -35 -12q-23 0 -35 12q-16 15 -16 39q0 19 16 35q12 12 35 12q24 0 35 -12zM375 574q16 -16 16 -35q0 -24 -16 -39q-12 -12 -35 -12q-24 0 -35 12q-16 15 -16 39q0 19 16 35q11 12 35 12q23 0 35 -12zM180 386
q-55 -46 -55 -140h250q4 105 -43 144q-31 28 -74 28q-39 0 -78 -32zM387 394q54 -47 54 -172h-316q0 -125 51 -164q39 -31 82 -31q66 0 101 31q32 32 51 75l20 -12q-16 -43 -59 -82q-43 -43 -117 -43q-82 0 -133 51q-59 54 -59 183q0 106 67 160q58 51 129 51q74 0 129 -47z
" />
    <glyph glyph-name="iacute" unicode="&#xed;" 
d="M359 587l8 -12l-195 -90l-4 16l86 86h105zM277 466v-411q0 -31 35 -31h83v-23h-290v23h82q36 0 36 31v325q0 35 -36 35h-82v23h40q66 0 125 28h7z" />
    <glyph glyph-name="igrave" unicode="&#xec;" 
d="M238 587l86 -86l-4 -16l-195 90l8 12h105zM277 466v-411q0 -31 35 -31h83v-23h-290v23h82q36 0 36 31v325q0 35 -36 35h-82v23h40q66 0 125 28h7z" />
    <glyph glyph-name="icircumflex" unicode="&#xee;" 
d="M297 598l82 -105l-8 -8l-121 78l-125 -78l-8 8l86 105h94zM277 466v-411q0 -31 35 -31h83v-23h-290v23h82q36 0 36 31v325q0 35 -36 35h-82v23h40q66 0 125 28h7z" />
    <glyph glyph-name="idieresis" unicode="&#xef;" 
d="M195 575q16 -16 16 -35q0 -24 -16 -39q-11 -12 -35 -12q-23 0 -35 12q-16 15 -16 39q0 19 16 35q12 12 35 12q24 0 35 -12zM375 575q16 -16 16 -35q0 -24 -16 -39q-12 -12 -35 -12q-24 0 -35 12q-16 15 -16 39q0 19 16 35q11 12 35 12q23 0 35 -12zM277 466v-411
q0 -31 35 -31h83v-23h-290v23h82q36 0 36 31v325q0 35 -36 35h-82v23h40q66 0 125 28h7z" />
    <glyph glyph-name="ntilde" unicode="&#xf1;" 
d="M254 563q35 -35 62 -35q55 0 79 59l19 -8q-43 -86 -98 -86q-46 0 -89 43q-28 27 -55 27q-55 0 -82 -54l-20 7q39 78 106 78q47 0 78 -31zM141 458v-98q66 78 144 78q129 0 129 -140v-243q0 -31 35 -31h20v-23h-164v23h19q35 0 35 31v254q0 98 -89 98q-71 0 -129 -90v-262
q0 -31 35 -31h19v-23h-164v23h20q35 0 35 31v336q0 24 -20 24h-31v23h27q36 0 71 20h8z" />
    <glyph glyph-name="oacute" unicode="&#xf3;" 
d="M375 390q74 -74 74 -175q0 -102 -70 -168q-51 -51 -133 -51q-78 0 -129 51q-74 70 -74 168q0 101 70 171q55 55 133 55t129 -51zM156 375q-51 -47 -51 -164q0 -110 51 -157q35 -35 90 -35t90 35q51 47 51 157q0 117 -51 164q-39 39 -90 39t-90 -39z" />
    <glyph glyph-name="ograve" unicode="&#xf2;" 
d="M238 586l86 -86l-4 -16l-195 90l8 12h105zM375 390q74 -74 74 -172q0 -105 -70 -171q-51 -51 -133 -51q-78 0 -129 51q-74 70 -74 171q0 98 70 168q55 55 133 55t129 -51zM156 375q-51 -47 -51 -160q0 -114 51 -161q35 -35 90 -35t90 35q51 47 51 161q0 113 -51 160
q-39 39 -90 39t-90 -39z" />
    <glyph glyph-name="ocircumflex" unicode="&#xf4;" 
d="M297 598l82 -105l-8 -8l-121 78l-125 -78l-8 8l86 105h94zM375 391q74 -74 74 -172q0 -105 -70 -171q-51 -51 -133 -51q-78 0 -129 51q-74 70 -74 171q0 98 70 168q55 55 133 55t129 -51zM156 376q-51 -47 -51 -160q0 -114 51 -161q35 -35 90 -35t90 35q51 47 51 161
q0 113 -51 160q-39 39 -90 39t-90 -39z" />
    <glyph glyph-name="odieresis" unicode="&#xf6;" 
d="M195 574q16 -16 16 -35q0 -24 -16 -39q-11 -12 -35 -12q-23 0 -35 12q-16 15 -16 39q0 19 16 35q12 12 35 12q24 0 35 -12zM375 574q16 -16 16 -35q0 -24 -16 -39q-12 -12 -35 -12q-24 0 -35 12q-16 15 -16 39q0 19 16 35q11 12 35 12q23 0 35 -12zM375 390
q74 -74 74 -172q0 -105 -70 -171q-51 -51 -133 -51q-78 0 -129 51q-74 70 -74 171q0 98 70 168q55 55 133 55t129 -51zM156 375q-51 -47 -51 -160q0 -114 51 -161q35 -35 90 -35t90 35q51 47 51 161q0 113 -51 160q-39 39 -90 39t-90 -39z" />
    <glyph glyph-name="otilde" unicode="&#xf5;" 
d="M254 562q35 -35 62 -35q55 0 79 59l19 -8q-43 -86 -98 -86q-46 0 -89 43q-28 27 -55 27q-55 0 -82 -54l-20 7q39 78 106 78q47 0 78 -31zM375 390q74 -74 74 -172q0 -105 -70 -171q-51 -51 -133 -51q-78 0 -129 51q-74 70 -74 171q0 98 70 168q55 55 133 55t129 -51z
M156 375q-51 -47 -51 -160q0 -114 51 -161q35 -35 90 -35t90 35q51 47 51 161q0 113 -51 160q-39 39 -90 39t-90 -39z" />
    <glyph glyph-name="uacute" unicode="&#xfa;" 
d="M359 587l8 -12l-195 -90l-4 16l86 86h105zM137 466v-332q0 -59 19 -79q24 -19 63 -19q62 0 97 31q24 20 39 63v250q0 35 -35 35h-19v23h19q43 0 82 28h8v-391q0 -31 35 -31h24v-24h-24q-39 0 -82 -23h-8v82q-46 -82 -148 -82q-55 0 -90 31t-35 102v250q0 35 -35 35h-20
v23h20q43 0 82 28h8z" />
    <glyph glyph-name="ugrave" unicode="&#xf9;" 
d="M238 588l86 -86l-4 -16l-195 90l8 12h105zM137 467v-332q0 -59 19 -79q24 -19 63 -19q62 0 97 31q24 20 39 63v250q0 35 -35 35h-19v23h19q43 0 82 28h8v-391q0 -31 35 -31h24v-24h-24q-39 0 -82 -23h-8v82q-46 -82 -148 -82q-55 0 -90 31t-35 102v250q0 35 -35 35h-20
v23h20q43 0 82 28h8z" />
    <glyph glyph-name="ucircumflex" unicode="&#xfb;" 
d="M297 598l82 -105l-8 -8l-121 78l-125 -78l-8 8l86 105h94zM137 466v-332q0 -59 19 -79q24 -19 63 -19q62 0 97 31q24 20 39 63v250q0 35 -35 35h-19v23h19q43 0 82 28h8v-391q0 -31 35 -31h24v-24h-24q-39 0 -82 -23h-8v82q-46 -82 -148 -82q-55 0 -90 31t-35 102v250
q0 35 -35 35h-20v23h20q43 0 82 28h8z" />
    <glyph glyph-name="udieresis" unicode="&#xfc;" 
d="M199 575q16 -16 16 -35q0 -24 -16 -39q-11 -12 -35 -12q-23 0 -35 12q-16 15 -16 39q0 19 16 35q12 12 35 12q24 0 35 -12zM379 575q16 -16 16 -35q0 -24 -16 -39q-12 -12 -35 -12q-24 0 -35 12q-16 15 -16 39q0 19 16 35q11 12 35 12q23 0 35 -12zM141 466v-332
q0 -59 19 -79q24 -19 63 -19q62 0 97 31q24 20 39 63v250q0 35 -35 35h-19v23h19q43 0 82 28h8v-391q0 -31 35 -31h24v-24h-24q-39 0 -82 -23h-8v82q-46 -82 -148 -82q-55 0 -90 31t-35 102v250q0 35 -35 35h-20v23h20q43 0 82 28h8z" />
    <glyph glyph-name="acute" unicode="&#xb4;" 
d="M645 801l-297 -121l-12 27l199 121h110v-27z" />
    <glyph glyph-name="dieresis" unicode="&#xa8;" 
d="M602 805q23 0 35 -12q15 -16 15 -35q0 -24 -15 -35q-12 -16 -35 -16q-20 0 -36 16q-11 11 -11 35q0 19 11 35q16 12 36 12zM379 805q23 0 35 -12q16 -16 16 -35q0 -24 -16 -35q-12 -16 -35 -16q-20 0 -35 16q-12 11 -12 35q0 19 12 35q15 12 35 12z" />
    <glyph glyph-name="notequal" unicode="&#x2260;" horiz-adv-x="1003" 
d="M836 277v-35h-375l-98 -222l-35 11l94 211h-266v35h281l71 164h-352v36h367l98 222l35 -12l-94 -210h274v-36h-289l-70 -164h359z" />
    <glyph glyph-name="trademark" unicode="&#x2122;" horiz-adv-x="532" 
d="M203 750h-58q-12 0 -12 -16v-308h-43v308q0 16 -12 16h-52l5 23h168zM461 426h-39v242l-74 -242h-8l-78 285v-285h-20v347h43l70 -257l79 257h27v-347z" />
    <glyph glyph-name="dollar" unicode="$" horiz-adv-x="474" 
d="M234 757h35v-71q52 -3 89.5 -36.5t49.5 -98.5l-22 -10q-17 62 -47 86t-70 24v-250q41 -38 69.5 -63t46 -47.5t25.5 -47.5t8 -62q0 -48 -16.5 -81t-39.5 -54t-49 -31t-44 -12v-98h-35v98q-58 0 -96.5 35t-58.5 113l24 12q12 -43 26 -69t30 -40.5t35 -19t40 -4.5v301
q-29 20 -55.5 42t-47 46.5t-33 52t-12.5 58.5q0 40 16.5 69.5t40 48.5t48.5 28.5t43 9.5v71zM359 154q0 81 -90 153v-275q15 0 31 7.5t29 22.5t21.5 38t8.5 54zM152 551q0 -39 24.5 -72t57.5 -58v230q-8 0 -21.5 -3.5t-27 -14t-23.5 -30t-10 -52.5z" />
    <glyph glyph-name="percent" unicode="%" horiz-adv-x="499" 
d="M117 672q-15 0 -27 -12q-28 -23 -28 -137q0 -117 28 -144q12 -12 27 -12q16 0 28 12q27 27 27 144q0 114 -27 137q-12 12 -28 12zM223 520q0 -110 -51 -157q-20 -19 -55 -19t-55 19q-50 47 -50 157q0 109 47 152q27 27 58 27t59 -27q47 -43 47 -152zM398 35q28 27 28 141
q0 113 -28 140q-11 12 -27 12t-27 -12q-28 -27 -28 -140q0 -114 28 -141q11 -12 27 -12t27 12zM430 328q47 -47 47 -156q0 -106 -51 -152q-24 -24 -55 -24t-55 24q-50 46 -50 152q0 109 46 156q28 27 59 27t59 -27zM422 742l-336 -801l-24 12l333 801z" />
    <glyph glyph-name="ampersand" unicode="&#x26;" horiz-adv-x="508" 
d="M270 637q35 -31 35 -90q0 -121 -129 -179q51 -153 125 -235q39 63 39 176q0 39 -35 39h-20v24h97v-24q-5 -132 -62 -242q51 -70 90 -70q35 0 59 62l15 -8q-11 -50 -39 -78q-23 -23 -62 -23t-98 66q-58 -66 -129 -66q-47 0 -86 35q-58 51 -58 133q0 129 101 203
q-27 82 -27 156q0 78 47 121q27 28 66 28q43 0 71 -28zM70 188q0 -90 39 -129q32 -27 78 -27q43 0 79 43q-90 105 -145 261q-51 -46 -51 -148zM168 629q-31 -11 -31 -89q0 -79 31 -149q82 43 82 160q0 59 -20 75q-15 15 -31 15q-4 0 -31 -12z" />
    <glyph glyph-name="quotesingle" unicode="'" horiz-adv-x="276" 
d="M157 758h77l-150 -212l-26 15z" />
    <glyph glyph-name="parenleft" unicode="(" horiz-adv-x="516" 
d="M453 785q-180 -187 -180 -426q0 -238 180 -425l-19 -20q-219 199 -219 445t219 446z" />
    <glyph glyph-name="parenright" unicode=")" horiz-adv-x="480" 
d="M43 785l19 20q219 -200 219 -446t-219 -445l-19 20q180 187 180 425q0 239 -180 426z" />
    <glyph glyph-name="asterisk" unicode="*" horiz-adv-x="516" 
d="M395 410l-133 -51l133 -50q42 -16 54 -28q12 -11 12 -27q0 -20 -8 -27q-12 -12 -27 -12q-24 0 -51 23l-121 110l27 -164q4 -24 4 -36q0 -19 -12 -31q-11 -12 -27 -12t-27 12q-12 12 -12 31q0 16 4 36l31 164l-121 -110q-27 -23 -51 -23q-15 0 -27 12q-8 7 -8 27
q0 16 12 27q12 12 55 28l132 50l-132 51q-43 16 -55 27q-12 12 -12 28q0 19 8 27q12 12 27 12q24 0 51 -24l121 -109l-27 164q-4 24 -4 35q0 20 12 32q11 11 27 11t27 -11q12 -12 12 -32q0 -15 -4 -35l-31 -164l121 109q27 24 51 24q15 0 27 -12q8 -8 8 -27q0 -16 -12 -28
q-12 -11 -54 -27z" />
    <glyph glyph-name="plus" unicode="+" horiz-adv-x="524" 
d="M238 383v222h35v-222h196v-35h-196v-223h-35v223h-195v35h195z" />
    <glyph glyph-name="comma" unicode="," horiz-adv-x="310" 
d="M136 99h93l-122 -208l-38 14z" />
    <glyph glyph-name="hyphen" unicode="-" horiz-adv-x="349" 
d="M326 363v-24h-298v24h298z" />
    <glyph glyph-name="period" unicode="." horiz-adv-x="209" 
d="M54 53q0 23 16 39t39 16t39 -16t16 -39t-16 -38.5t-39 -15.5t-39 15.5t-16 38.5z" />
    <glyph glyph-name="slash" unicode="/" horiz-adv-x="527" 
d="M62 -74l-27 15l399 836l27 -15z" />
    <glyph glyph-name="exclam" unicode="!" horiz-adv-x="471" 
d="M285 51q16 -16 16 -39q0 -24 -16 -39q-15 -16 -39 -16q-23 0 -39 16q-16 15 -16 39q0 23 16 39q16 15 39 15q24 0 39 -15zM277 797q20 -20 20 -59q0 -35 -8 -105q-8 -74 -16 -153q-7 -97 -11 -175v-125h-32v125q-3 82 -11 175q-8 82 -16 153q-8 70 -8 105q0 39 20 59
q12 12 31 12q20 0 31 -12z" />
    <glyph glyph-name="quotedbl" unicode="&#x22;" horiz-adv-x="386" 
d="M108 758h77l-103 -212l-26 15zM246 758h77l-150 -212l-26 15z" />
    <glyph glyph-name="numbersign" unicode="#" horiz-adv-x="533" 
d="M324 160h-179l-16 -195h-35l15 195h-74v74h78l20 243h-98v74h102l15 191h35l-15 -191h180l15 191h35l-15 -191h74v-74h-78l-20 -243h98v-74h-102l-15 -195h-35zM148 234h180l20 243h-180z" />
    <glyph glyph-name="Agrave" unicode="&#xc0;" 
d="M225 813l86 -86l-4 -15l-195 89l8 12h105zM410 0h-62l-59 246h-175l-63 -246h-31l168 652l58 20zM121 269h164l-78 324h-4z" />
    <glyph glyph-name="Atilde" unicode="&#xc3;" horiz-adv-x="491" 
d="M410 0h-62l-59 246h-175l-63 -246h-31l168 652l58 20zM121 269h164l-78 324h-4zM262 794q35 -35 66 -35q63 0 86 58l20 -8q-43 -86 -106 -86q-55 0 -98 43q-35 35 -58 35q-59 0 -90 -62l-20 8q40 86 114 86q47 0 86 -39z" />
    <glyph glyph-name="Otilde" unicode="&#xd5;" 
d="M262 791q35 -35 66 -35q63 0 86 58l20 -8q-43 -86 -106 -86q-55 0 -98 43q-35 35 -58 35q-59 0 -90 -62l-20 8q40 86 114 86q47 0 86 -39zM184 619q-75 -63 -75 -289q0 -223 75 -285q31 -28 70 -28t70 28q74 62 74 285q0 226 -74 289q-27 23 -70 23t-70 -23zM371 627
q102 -90 102 -297q0 -199 -102 -289q-55 -47 -117 -47q-63 0 -117 47q-102 90 -102 289q0 207 98 293q51 47 121 47t117 -43z" />
    <glyph glyph-name="Acircumflex" unicode="&#xc2;" 
d="M275 813l82 -105l-129 70l-125 -78l-8 8l86 105h94zM410 0h-62l-59 246h-175l-63 -246h-31l168 652l58 20zM121 269h164l-78 324h-4z" />
    <glyph glyph-name="Ecircumflex" unicode="&#xca;" 
d="M268 813l82 -105l-8 -8l-121 78l-125 -78l-8 8l86 105h94zM384 668l8 -24h-238q-36 0 -36 -31v-242h211v-24h-211v-293q0 -31 36 -31h246l-16 -23h-328v23v31v559v31v24h328z" />
    <glyph glyph-name="Aacute" unicode="&#xc1;" horiz-adv-x="496" 
d="M326 812l8 -12l-195 -89l-4 15l86 86h105zM410 0h-62l-59 246h-175l-63 -246h-31l168 652l58 20zM121 269h164l-78 324h-4z" />
    <glyph glyph-name="Edieresis" unicode="&#xcb;" 
d="M161 817q16 -16 16 -35q0 -23 -16 -39q-11 -12 -35 -12q-23 0 -35 12q-16 16 -16 39q0 19 16 35q12 12 35 12q24 0 35 -12zM357 817q15 -16 15 -35q0 -23 -15 -39q-12 -12 -35 -12q-24 0 -36 12q-15 16 -15 39q0 19 15 35q12 12 36 12q23 0 35 -12zM384 668l8 -24h-238
q-36 0 -36 -31v-242h211v-24h-211v-293q0 -31 36 -31h246l-16 -23h-328v23v31v559v31v24h328z" />
    <glyph glyph-name="Egrave" unicode="&#xc8;" 
d="M216 813l86 -86l-4 -15l-195 89l8 12h105zM384 668l8 -24h-238q-36 0 -36 -31v-242h211v-24h-211v-293q0 -31 36 -31h246l-16 -23h-328v23v31v559v31v24h328z" />
    <glyph glyph-name="Iacute" unicode="&#xcd;" horiz-adv-x="184" 
d="M193 813l8 -12l-195 -89l-4 15l86 86h105zM118 668v-668h-63v668h63z" />
    <glyph glyph-name="Icircumflex" unicode="&#xce;" horiz-adv-x="181" 
d="M133 813l82 -105l-8 -8l-121 78l-125 -78l-8 8l86 105h94zM118 668v-668h-63v668h63z" />
    <glyph glyph-name="Idieresis" unicode="&#xcf;" 
d="M27 817q16 -16 16 -35q0 -23 -16 -39q-11 -12 -35 -12q-23 0 -35 12q-16 16 -16 39q0 19 16 35q12 12 35 12q24 0 35 -12zM223 817q15 -16 15 -35q0 -23 -15 -39q-12 -12 -35 -12q-24 0 -36 12q-15 16 -15 39q0 19 15 35q12 12 36 12q23 0 35 -12zM118 668v-668h-63v668
h63z" />
    <glyph glyph-name="Igrave" unicode="&#xcc;" horiz-adv-x="181" 
d="M82 813l86 -86l-4 -15l-195 89l8 12h105zM118 668v-668h-63v668h63z" />
    <glyph glyph-name="Oacute" unicode="&#xd3;" horiz-adv-x="530" 
d="M355 811l8 -12l-195 -89l-4 15l86 86h105zM184 620q-75 -63 -75 -289q0 -223 75 -285q31 -28 70 -28t70 28q74 62 74 285q0 226 -74 289q-27 23 -70 23t-70 -23zM371 628q102 -90 102 -297q0 -199 -102 -289q-55 -47 -117 -47q-63 0 -117 47q-102 90 -102 289
q0 207 98 293q51 47 121 47t117 -43z" />
    <glyph glyph-name="Ocircumflex" unicode="&#xd4;" horiz-adv-x="516" 
d="M297 810l82 -105l-8 -8l-121 78l-125 -78l-8 8l86 105h94zM184 619q-75 -63 -75 -289q0 -223 75 -285q31 -28 70 -28t70 28q74 62 74 285q0 226 -74 289q-27 23 -70 23t-70 -23zM371 627q102 -90 102 -297q0 -199 -102 -289q-55 -47 -117 -47q-63 0 -117 47
q-102 90 -102 289q0 207 98 293q51 47 121 47t117 -43z" />
    <glyph glyph-name="Ograve" unicode="&#xd2;" horiz-adv-x="533" 
d="M246 810l86 -86l-4 -15l-195 89l8 12h105zM184 619q-75 -63 -75 -289q0 -223 75 -285q31 -28 70 -28t70 28q74 62 74 285q0 226 -74 289q-27 23 -70 23t-70 -23zM371 627q102 -90 102 -297q0 -199 -102 -289q-55 -47 -117 -47q-63 0 -117 47q-102 90 -102 289
q0 207 98 293q51 47 121 47t117 -43z" />
    <glyph glyph-name="Uacute" unicode="&#xda;" horiz-adv-x="463" 
d="M339 813l8 -12l-195 -89l-4 15l86 86h105zM117 668v-24v-31v-441q0 -90 31 -118q31 -27 90 -27q66 0 98 31q43 39 43 114v441v31v24h23v-24v-31v-441q0 -79 -47 -125q-55 -51 -125 -51q-82 0 -133 47q-43 43 -43 129v441v31v24h63z" />
    <glyph glyph-name="Ucircumflex" unicode="&#xdb;" 
d="M281 812l82 -105l-8 -8l-121 78l-125 -78l-8 8l86 105h94zM117 668v-24v-31v-441q0 -90 31 -118q31 -27 90 -27q66 0 98 31q43 39 43 114v441v31v24h23v-24v-31v-441q0 -79 -47 -125q-55 -51 -125 -51q-82 0 -133 47q-43 43 -43 129v441v31v24h63z" />
    <glyph glyph-name="Ugrave" unicode="&#xd9;" 
d="M230 812l86 -86l-4 -15l-195 89l8 12h105zM117 668v-24v-31v-441q0 -90 31 -118q31 -27 90 -27q66 0 98 31q43 39 43 114v441v31v24h23v-24v-31v-441q0 -79 -47 -125q-55 -51 -125 -51q-82 0 -133 47q-43 43 -43 129v441v31v24h63z" />
    <glyph glyph-name="endash" unicode="&#x2013;" horiz-adv-x="502" 
d="M395 371v-35h-286v35h286z" />
    <glyph glyph-name="emdash" unicode="&#x2014;" horiz-adv-x="496" 
d="M496 363v-23h-496v23h496z" />
    <glyph glyph-name="zero" unicode="0" horiz-adv-x="500" 
d="M194 617q-70 -70 -70 -281q0 -215 70 -286q28 -23 59 -23t59 23q66 67 66 286q0 214 -66 281q-28 23 -59 23t-59 -23zM355 629q39 -39 62 -106q35 -98 35 -187q0 -98 -35 -192q-27 -70 -62 -101q-47 -47 -102 -47t-102 47q-39 35 -66 101q-35 90 -35 192q0 101 35 187
q27 67 66 106q47 43 102 43t102 -43z" />
    <glyph glyph-name="one" unicode="1" horiz-adv-x="300" 
d="M193 668v-668h-62v621l-44 -20v24l83 43h23z" />
    <glyph glyph-name="three" unicode="3" horiz-adv-x="500" 
d="M236 673q50 0 84.5 -16t55.5 -39.5t30.5 -49.5t9.5 -45q0 -38 -12 -65.5t-30 -46.5t-39.5 -30t-39.5 -17q69 -21 108.5 -63.5t39.5 -117.5q0 -32 -12 -65t-37.5 -60t-64 -44t-91.5 -17q-90 0 -132 45t-42 124h24q0 -39 11 -66.5t31 -44t47.5 -24t60.5 -7.5q63 0 99 40.5
t36 118.5q0 43 -9 74t-29.5 51.5t-54 30t-83.5 9.5v28q31 0 59 5.5t49 21.5t33 44t12 72q0 10 -4 31t-16 42t-34.5 37t-59.5 16q-66 0 -104.5 -37.5t-38.5 -97.5h-23q0 25 9.5 53.5t29.5 53t51.5 40.5t75.5 16z" />
    <glyph glyph-name="two" unicode="2" horiz-adv-x="506" 
d="M447 500q0 -27 -9.5 -54.5t-26 -56t-39 -59.5t-47.5 -65q-46 -63 -94 -124t-91 -118h297l-8 -23h-363v23l217 279q22 28 41.5 53.5t34 50t23 48t8.5 46.5q0 17 -6 42t-20.5 47.5t-40 38.5t-64.5 16q-79 0 -122.5 -41t-43.5 -129h-23q0 42 11.5 78.5t34.5 63t59 41.5
t84 15q46 0 81 -14.5t59 -38.5t36 -55t12 -64z" />
    <glyph glyph-name="quotedblleft" unicode="&#x201c;" horiz-adv-x="392" 
d="M325 561l-26 -15l-103 212h77zM239 561l-28 -15l-150 212h79z" />
    <glyph glyph-name="quotedblright" unicode="&#x201d;" horiz-adv-x="402" 
d="M138 758h77l-103 -212l-26 15zM269 758h79l-150 -212l-28 15z" />
    <glyph glyph-name="quoteright" unicode="&#x2019;" horiz-adv-x="307" 
d="M173 758h77l-150 -212l-26 15z" />
    <glyph glyph-name="quoteleft" unicode="&#x2018;" horiz-adv-x="325" 
d="M250 561l-26 -15l-150 212h77z" />
  </font>
</defs>
</svg>
